<svg width="720" height="692" viewBox="0 0 720 692" fill="none" xmlns="http://www.w3.org/2000/svg">
<g clip-path="url(#clip0)">
<path d="M416.568 666.531C446.863 666.531 471.422 639.144 471.422 605.36C471.422 571.576 446.863 544.189 416.568 544.189C386.272 544.189 361.713 571.576 361.713 605.36C361.713 639.144 386.272 666.531 416.568 666.531Z" fill="#F2F2F2"/>
<path d="M428.779 651.336C415.284 651.336 402.091 646.873 390.87 638.512C379.649 630.151 370.904 618.268 365.739 604.364C360.575 590.46 359.224 575.161 361.856 560.4C364.489 545.64 370.988 532.082 380.531 521.441C390.073 510.799 402.231 503.552 415.467 500.616C428.703 497.68 442.423 499.187 454.891 504.946C467.359 510.705 478.016 520.458 485.513 532.971C493.011 545.484 497.013 560.196 497.013 575.245C496.992 595.419 489.797 614.759 477.005 629.024C464.213 643.289 446.869 651.313 428.779 651.336V651.336ZM428.779 500.149C415.46 500.149 402.44 504.553 391.366 512.805C380.292 521.056 371.66 532.785 366.563 546.507C361.466 560.229 360.133 575.328 362.731 589.896C365.33 604.463 371.743 617.844 381.161 628.346C390.579 638.848 402.578 646.001 415.641 648.898C428.704 651.796 442.245 650.309 454.55 644.625C466.855 638.941 477.372 629.316 484.772 616.966C492.171 604.617 496.121 590.098 496.121 575.245C496.101 555.335 488.999 536.247 476.375 522.169C463.75 508.09 446.633 500.171 428.779 500.149V500.149Z" fill="#F2F2F2"/>
<path d="M718 80H319V330H718V80Z" fill="#3F3D56"/>
<path d="M718 331.256H317.78V76.6592H718V331.256ZM319.599 329.228H716.181V78.6878H319.599V329.228Z" fill="#3F3D56"/>
<path d="M536.086 85.788H462.405V69.5588H536.086L543.358 77.6739L536.086 85.788Z" fill="#D0CDE1"/>
<path d="M463.318 85.788H389.637V69.5588H463.318L470.591 77.6739L463.318 85.788Z" fill="#3F3D56"/>
<path d="M391.46 85.788H317.78V69.5588H391.46L398.733 77.6739L391.46 85.788Z" fill="#6C63FF"/>
<path d="M65.0927 665.975L64.1165 665.567C63.902 665.477 42.5514 656.355 32.5499 635.671C22.548 614.986 27.4454 590.082 27.4961 589.833L27.7266 588.699L28.7023 589.107C28.9169 589.197 50.267 598.319 60.2689 619.003C70.2708 639.688 65.3734 664.592 65.3228 664.841L65.0927 665.975ZM34.1515 634.708C42.6074 652.196 59.4793 661.161 63.7541 663.207C64.5668 658.098 67.1157 637.437 58.6674 619.966C50.2199 602.496 33.3414 593.518 29.0648 591.466C28.2516 596.579 25.7036 617.238 34.1515 634.708Z" fill="#3F3D56"/>
<path d="M40.1934 628.415C58.1674 640.474 65.0898 664.427 65.0898 664.427C65.0898 664.427 42.8705 668.828 24.8964 656.769C6.92237 644.71 0 620.757 0 620.757C0 620.757 22.2193 616.356 40.1934 628.415Z" fill="#6C63FF"/>
<path d="M261.958 318.218C261.958 318.218 293.241 336.307 281.655 353.103C270.069 369.899 250.372 333.723 250.372 331.139C250.372 328.554 261.958 318.218 261.958 318.218Z" fill="#A0616A"/>
<path d="M227.2 271.705C227.2 271.705 248.055 300.13 253.848 304.006C259.641 307.882 264.275 311.758 264.275 313.05C264.275 314.342 268.91 320.802 268.91 320.802L250.372 338.891C250.372 338.891 229.517 307.882 227.2 307.882C224.883 307.882 227.2 271.705 227.2 271.705Z" fill="#575A89"/>
<path d="M122.924 603.757L109.021 629.598L129.876 639.933L149.573 633.473L137.986 601.173L122.924 603.757Z" fill="#A0616A"/>
<path d="M162.317 322.094L150.731 444.837C150.731 444.837 125.242 502.978 125.242 549.492C125.242 596.005 115.973 608.925 115.973 608.925L144.938 614.093L176.221 500.394L228.358 394.448L213.296 288.502L187.807 278.165L162.317 322.094Z" fill="#2F2E41"/>
<path d="M120.607 628.305C120.607 628.305 111.918 614.739 111.918 618.615C111.918 622.491 95.1177 665.774 109.021 665.774C122.925 665.774 160 663.19 166.952 665.774C173.904 668.358 197.076 663.19 194.759 647.686C192.441 632.181 164.635 633.473 164.635 633.473C164.635 633.473 147.875 607.423 143.51 616.572L139.145 625.721L120.607 628.305Z" fill="#2F2E41"/>
<path d="M245.738 603.757L231.835 629.598L252.689 639.933L272.386 633.473L260.8 601.173L245.738 603.757Z" fill="#A0616A"/>
<path d="M243.421 628.305C243.421 628.305 234.731 616.031 234.731 619.907C234.731 623.783 217.931 665.774 231.834 665.774C245.738 665.774 282.813 663.19 289.765 665.774C296.717 668.358 319.889 663.19 317.572 647.686C315.255 632.181 287.448 633.473 287.448 633.473C287.448 633.473 270.689 607.423 266.324 616.572L261.958 625.721L243.421 628.305Z" fill="#2F2E41"/>
<path d="M143.78 320.802C143.78 320.802 147.255 355.687 165.793 387.988C184.331 420.289 210.979 477.138 210.979 477.138C210.979 477.138 208.662 533.987 221.407 566.288C234.152 598.589 236.469 615.385 236.469 615.385L267.751 606.341C267.751 606.341 250.372 497.81 257.324 473.262C264.276 448.713 230.676 320.802 230.676 320.802L199.393 291.086L158.842 285.917L143.78 320.802Z" fill="#2F2E41"/>
<path d="M210.555 108.339C225.272 108.339 237.203 95.034 237.203 78.622C237.203 62.2099 225.272 48.9053 210.555 48.9053C195.838 48.9053 183.907 62.2099 183.907 78.622C183.907 95.034 195.838 108.339 210.555 108.339Z" fill="#A0616A"/>
<path d="M188.782 80.1168L174.835 113.388L213.99 143.632C213.99 143.632 209.381 107.613 218.064 98.4914C226.746 89.37 188.782 80.1168 188.782 80.1168Z" fill="#A0616A"/>
<path d="M219.089 146.378C219.089 146.378 200.552 103.741 185.49 103.741C170.428 103.741 131.035 133.458 132.193 139.918C133.352 146.378 133.352 147.67 133.352 151.546C133.352 155.423 125.242 155.423 132.193 158.007C139.145 160.591 140.304 163.175 140.304 163.175L134.511 328.555C134.511 328.555 160 338.891 169.269 335.015C178.538 331.139 187.807 305.298 187.807 305.298C187.807 305.298 185.49 340.183 194.759 338.891C204.027 337.599 238.786 335.015 239.945 329.847C241.103 324.678 232.993 210.98 232.993 210.98L219.089 146.378Z" fill="#575A89"/>
<path d="M134.511 337.599C134.511 337.599 120.607 394.448 140.304 389.28C160 384.112 154.207 338.891 154.207 338.891L134.511 337.599Z" fill="#A0616A"/>
<path d="M158.841 136.042L125.242 231.652C125.242 231.652 120.607 241.988 125.242 249.741C129.876 257.493 122.924 304.006 127.559 314.342C132.193 324.678 132.193 342.767 132.193 342.767L158.841 345.351L164.635 231.652L194.759 159.299C194.759 159.299 192.441 129.582 158.841 136.042Z" fill="#575A89"/>
<path opacity="0.1" d="M167.531 132.812C167.531 132.812 146.676 139.272 139.724 162.529L167.531 132.812Z" fill="black"/>
<path d="M193.091 92.1795C195.684 92.007 198.216 92.9841 200.79 93.3653C210.002 94.7291 219.584 87.2751 221.618 77.1641C221.781 75.8176 222.141 74.51 222.684 73.2934C224.101 70.7123 227.33 70.2202 229.992 70.8137C232.653 71.4072 235.176 72.7963 237.887 72.9549C242.072 73.1998 246.09 70.3266 248.32 66.3699C250.551 62.4133 251.182 57.5446 250.881 52.8832L248.875 55.2314C248.06 53.3081 247.745 51.1681 247.966 49.0551C246.903 48.7394 245.785 48.7333 244.719 49.0374C243.653 49.3416 242.675 49.9458 241.879 50.7922C240.11 51.0022 241.445 47.133 240.13 45.7958C239.58 45.2359 238.736 45.3415 237.991 45.3496C234.228 45.39 231.183 42.1799 228.217 39.5957C223.079 35.1282 217.07 32.0716 210.676 30.6729C206.426 29.7486 201.907 29.6 197.877 31.3648C194.567 32.8141 191.796 35.4537 189.233 38.2022C182.923 44.9683 177.336 52.9182 174.71 62.2307C172.576 69.8584 172.516 78.0201 174.537 85.6861C175.595 89.6672 178.782 103.302 183.449 103.619C189.313 104.018 185.792 92.6652 193.091 92.1795Z" fill="#2F2E41"/>
<path opacity="0.1" d="M194.985 187.221L167.697 231.851L158.97 335.52L194.985 187.221Z" fill="black"/>
<path d="M428.75 664.971H0.332275V667H428.75V664.971Z" fill="#3F3D56"/>
<path d="M314.909 395.371L251.377 349.891C274.331 327.304 290.503 301.932 296.091 272.214L359.624 317.694C339.051 338.937 323.664 365.668 314.909 395.371Z" fill="#6C63FF"/>
<path d="M336.207 320.819L303.293 297.257L302.31 298.964L335.224 322.526L336.207 320.819Z" fill="#3F3D56"/>
<path d="M332.276 327.648L299.362 304.086L298.379 305.793L331.293 329.355L332.276 327.648Z" fill="#3F3D56"/>
<path d="M328.345 334.476L295.431 310.915L294.448 312.622L327.362 336.184L328.345 334.476Z" fill="#3F3D56"/>
<path d="M324.414 341.305L291.5 317.743L290.517 319.45L323.431 343.012L324.414 341.305Z" fill="#3F3D56"/>
<path d="M320.483 348.134L287.569 324.572L286.586 326.279L319.501 349.841L320.483 348.134Z" fill="#3F3D56"/>
<path d="M316.552 354.963L283.638 331.401L282.655 333.108L315.569 356.67L316.552 354.963Z" fill="#3F3D56"/>
<path d="M312.621 361.791L279.707 338.229L278.724 339.937L311.639 363.499L312.621 361.791Z" fill="#3F3D56"/>
<path d="M308.69 368.62L275.776 345.058L274.793 346.765L307.708 370.327L308.69 368.62Z" fill="#3F3D56"/>
<path d="M327.414 381.401L253.034 366.979C266.329 336.229 272.405 305.847 267.214 276.04L341.594 290.462C330.026 318.943 325.146 350.238 327.414 381.401V381.401Z" fill="#F2F2F2"/>
<path d="M321.1 303.478L282.565 296.006L282.254 298.005L320.788 305.477L321.1 303.478Z" fill="#3F3D56"/>
<path d="M319.853 311.47L281.319 303.999L281.007 305.997L319.542 313.469L319.853 311.47Z" fill="#3F3D56"/>
<path d="M318.607 319.465L280.072 311.993L279.761 313.992L318.295 321.464L318.607 319.465Z" fill="#3F3D56"/>
<path d="M317.36 327.46L278.826 319.988L278.514 321.987L317.049 329.458L317.36 327.46Z" fill="#3F3D56"/>
<path d="M316.114 335.454L277.579 327.983L277.268 329.981L315.802 337.453L316.114 335.454Z" fill="#3F3D56"/>
<path d="M314.867 343.449L276.333 335.977L276.021 337.976L314.555 345.448L314.867 343.449Z" fill="#3F3D56"/>
<path d="M313.62 351.444L275.086 343.972L274.775 345.971L313.309 353.442L313.62 351.444Z" fill="#3F3D56"/>
<path d="M312.374 359.439L273.84 351.967L273.528 353.965L312.062 361.437L312.374 359.439Z" fill="#3F3D56"/>
<path d="M666.483 309H374.517C372.524 308.998 370.614 308.156 369.204 306.659C367.795 305.163 367.002 303.134 367 301.018V109.848C367.002 108.298 367.582 106.811 368.615 105.715C369.647 104.619 371.047 104.002 372.507 104H668.397C669.883 104.002 671.307 104.629 672.357 105.744C673.408 106.86 673.998 108.372 674 109.949V301.018C673.998 303.134 673.205 305.163 671.796 306.659C670.386 308.156 668.476 308.998 666.483 309V309Z" fill="#F2F2F2"/>
<path d="M656.755 299H384.245C380.25 299 377 295.773 377 291.807V125.335C377 122.393 379.408 120 382.368 120H658.543C661.552 120 664 122.433 664 125.422V291.807C664 295.773 660.75 299 656.755 299Z" fill="white"/>
<path d="M674 111H367V106.96C367.003 104.849 367.799 102.825 369.213 101.333C370.628 99.8408 372.545 99.0018 374.545 99H666.455C668.455 99.0017 670.372 99.8407 671.787 101.333C673.201 102.825 673.997 104.849 674 106.96V111Z" fill="#3F3D56"/>
<path d="M380 107C381.105 107 382 106.105 382 105C382 103.895 381.105 103 380 103C378.895 103 378 103.895 378 105C378 106.105 378.895 107 380 107Z" fill="white"/>
<path d="M388 107C389.105 107 390 106.105 390 105C390 103.895 389.105 103 388 103C386.895 103 386 103.895 386 105C386 106.105 386.895 107 388 107Z" fill="white"/>
<path d="M395 107C396.105 107 397 106.105 397 105C397 103.895 396.105 103 395 103C393.895 103 393 103.895 393 105C393 106.105 393.895 107 395 107Z" fill="white"/>
<path d="M514.019 156H460.981C460.191 156 459.432 155.684 458.873 155.121C458.314 154.559 458 153.796 458 153C458 152.204 458.314 151.441 458.873 150.879C459.432 150.316 460.191 150 460.981 150H514.019C514.809 150 515.568 150.316 516.127 150.879C516.686 151.441 517 152.204 517 153C517 153.796 516.686 154.559 516.127 155.121C515.568 155.684 514.809 156 514.019 156V156Z" fill="#CCCCCC"/>
<path d="M580.968 156H527.032C526.228 156 525.457 155.684 524.888 155.121C524.319 154.559 524 153.796 524 153C524 152.204 524.319 151.441 524.888 150.879C525.457 150.316 526.228 150 527.032 150H580.968C581.772 150 582.543 150.316 583.112 150.879C583.681 151.441 584 152.204 584 153C584 153.796 583.681 154.559 583.112 155.121C582.543 155.684 581.772 156 580.968 156V156Z" fill="#CCCCCC"/>
<path d="M580.995 169H488.005C487.208 169 486.444 168.631 485.88 167.975C485.317 167.318 485 166.428 485 165.5C485 164.572 485.317 163.681 485.88 163.025C486.444 162.369 487.208 162 488.005 162H580.995C581.792 162 582.556 162.369 583.12 163.025C583.683 163.681 584 164.572 584 165.5C584 166.428 583.683 167.318 583.12 167.975C582.556 168.631 581.792 169 580.995 169Z" fill="#CCCCCC"/>
<path d="M514.015 144H460.978C460.188 143.999 459.43 143.683 458.872 143.12C458.314 142.558 458 141.795 458 141C458 140.205 458.314 139.442 458.872 138.88C459.43 138.317 460.188 138.001 460.978 138H514.015C514.407 138 514.795 138.077 515.157 138.227C515.519 138.378 515.848 138.599 516.125 138.877C516.403 139.156 516.623 139.487 516.773 139.851C516.923 140.215 517 140.606 517 141C517 141.394 516.923 141.785 516.773 142.149C516.623 142.513 516.403 142.844 516.125 143.123C515.848 143.401 515.519 143.622 515.157 143.773C514.795 143.923 514.407 144 514.015 144V144Z" fill="#CCCCCC"/>
<path d="M544.022 144H528.978C528.188 144 527.431 143.684 526.872 143.121C526.314 142.559 526 141.796 526 141C526 140.204 526.314 139.441 526.872 138.879C527.431 138.316 528.188 138 528.978 138H544.022C544.812 138 545.569 138.316 546.128 138.879C546.686 139.441 547 140.204 547 141C547 141.796 546.686 142.559 546.128 143.121C545.569 143.684 544.812 144 544.022 144Z" fill="#CCCCCC"/>
<path d="M476.019 169H460.974C460.185 168.999 459.428 168.63 458.871 167.973C458.313 167.317 458 166.428 458 165.5C458 164.572 458.313 163.683 458.871 163.027C459.428 162.37 460.185 162.001 460.974 162H476.019C476.41 161.999 476.798 162.09 477.159 162.265C477.521 162.441 477.85 162.699 478.127 163.024C478.403 163.349 478.623 163.735 478.773 164.16C478.923 164.585 479 165.04 479 165.5C479 165.96 478.923 166.415 478.773 166.84C478.623 167.265 478.403 167.651 478.127 167.976C477.85 168.301 477.521 168.559 477.159 168.735C476.798 168.91 476.41 169.001 476.019 169Z" fill="#CCCCCC"/>
<path d="M514.019 269H460.981C460.191 269 459.432 268.684 458.873 268.121C458.314 267.559 458 266.796 458 266C458 265.204 458.314 264.441 458.873 263.879C459.432 263.316 460.191 263 460.981 263H514.019C514.41 263 514.798 263.078 515.16 263.228C515.521 263.379 515.85 263.6 516.127 263.879C516.404 264.157 516.623 264.488 516.773 264.852C516.923 265.216 517 265.606 517 266C517 266.394 516.923 266.784 516.773 267.148C516.623 267.512 516.404 267.843 516.127 268.121C515.85 268.4 515.521 268.621 515.16 268.772C514.798 268.922 514.41 269 514.019 269V269Z" fill="#CCCCCC"/>
<path d="M580.968 269H527.032C526.228 269 525.457 268.684 524.888 268.121C524.319 267.559 524 266.796 524 266C524 265.204 524.319 264.441 524.888 263.879C525.457 263.316 526.228 263 527.032 263H580.968C581.366 263 581.76 263.078 582.128 263.228C582.496 263.379 582.83 263.6 583.112 263.879C583.393 264.157 583.617 264.488 583.769 264.852C583.922 265.216 584 265.606 584 266C584 266.394 583.922 266.784 583.769 267.148C583.617 267.512 583.393 267.843 583.112 268.121C582.83 268.4 582.496 268.621 582.128 268.772C581.76 268.922 581.366 269 580.968 269V269Z" fill="#CCCCCC"/>
<path d="M580.992 281H488.005C487.208 281 486.444 280.684 485.88 280.121C485.317 279.559 485 278.796 485 278C485 277.204 485.317 276.441 485.88 275.879C486.444 275.316 487.208 275 488.005 275H580.992C581.386 275 581.778 275.077 582.143 275.227C582.508 275.378 582.839 275.599 583.119 275.877C583.398 276.156 583.62 276.487 583.771 276.851C583.922 277.215 584 277.606 584 278C584 278.394 583.922 278.785 583.771 279.149C583.62 279.513 583.398 279.844 583.119 280.123C582.839 280.401 582.508 280.622 582.143 280.773C581.778 280.923 581.386 281 580.992 281Z" fill="#CCCCCC"/>
<path d="M514.019 257H460.981C460.191 257 459.432 256.684 458.873 256.121C458.314 255.559 458 254.796 458 254C458 253.204 458.314 252.441 458.873 251.879C459.432 251.316 460.191 251 460.981 251H514.019C514.809 251 515.568 251.316 516.127 251.879C516.686 252.441 517 253.204 517 254C517 254.796 516.686 255.559 516.127 256.121C515.568 256.684 514.809 257 514.019 257Z" fill="#CCCCCC"/>
<path d="M544.022 257H528.978C528.188 257 527.431 256.684 526.872 256.121C526.314 255.559 526 254.796 526 254C526 253.204 526.314 252.441 526.872 251.879C527.431 251.316 528.188 251 528.978 251H544.022C544.812 251 545.569 251.316 546.128 251.879C546.686 252.441 547 253.204 547 254C547 254.796 546.686 255.559 546.128 256.121C545.569 256.684 544.812 257 544.022 257V257Z" fill="#CCCCCC"/>
<path d="M476.019 281H460.977C460.188 281 459.43 280.684 458.872 280.121C458.314 279.559 458 278.796 458 278C458 277.204 458.314 276.441 458.872 275.879C459.43 275.316 460.188 275 460.977 275H476.019C476.41 275 476.798 275.077 477.16 275.227C477.521 275.378 477.85 275.599 478.127 275.877C478.404 276.156 478.623 276.487 478.773 276.851C478.923 277.215 479 277.606 479 278C479 278.394 478.923 278.785 478.773 279.149C478.623 279.513 478.404 279.844 478.127 280.123C477.85 280.401 477.521 280.622 477.16 280.773C476.798 280.923 476.41 281 476.019 281Z" fill="#CCCCCC"/>
<path d="M500.542 235C499.4 235.003 498.303 234.53 497.49 233.684L477.254 212.636C476.857 212.223 476.541 211.731 476.326 211.188C476.111 210.645 476 210.063 476 209.475C476 208.887 476.111 208.305 476.326 207.762C476.541 207.219 476.857 206.727 477.254 206.314L497.408 185.35C498.248 184.481 499.379 183.996 500.556 184C501.733 184.004 502.861 184.497 503.696 185.371C504.531 186.253 505 187.448 505 188.693C505 189.939 504.531 191.134 503.696 192.015L488.72 207.791C488.253 208.283 487.991 208.951 487.991 209.647C487.991 210.342 488.253 211.01 488.72 211.503L503.615 227.192C504.223 227.832 504.637 228.647 504.805 229.534C504.973 230.422 504.887 231.342 504.558 232.179C504.229 233.015 503.672 233.729 502.957 234.232C502.242 234.734 501.402 235.001 500.542 235V235Z" fill="#6C63FF"/>
<path d="M532.46 235C531.6 235.001 530.76 234.734 530.045 234.232C529.33 233.729 528.773 233.015 528.444 232.179C528.115 231.342 528.029 230.422 528.197 229.534C528.365 228.647 528.779 227.832 529.387 227.192L544.281 211.503C544.748 211.01 545.01 210.342 545.01 209.647C545.01 208.951 544.748 208.283 544.281 207.791L529.306 192.015C528.892 191.579 528.564 191.061 528.339 190.491C528.115 189.921 528 189.31 528 188.693C528 188.076 528.115 187.466 528.34 186.896C528.564 186.326 528.892 185.808 529.306 185.371V185.371C530.141 184.497 531.269 184.004 532.446 184C533.623 183.996 534.754 184.481 535.594 185.35L555.746 206.314C556.143 206.727 556.459 207.219 556.674 207.762C556.889 208.305 557 208.887 557 209.475C557 210.063 556.889 210.645 556.674 211.188C556.459 211.731 556.143 212.223 555.746 212.636L535.512 233.684C534.699 234.53 533.602 235.003 532.46 235Z" fill="#6C63FF"/>
</g>
<defs>
<clipPath id="clip0">
<rect width="718" height="637" fill="white" transform="translate(0 30)"/>
</clipPath>
</defs>
</svg>
