<svg width="40" height="40" viewBox="0 0 40 40" fill="none" xmlns="http://www.w3.org/2000/svg">
<g clip-path="url(#clip0)">
<path d="M5.07463 0L0.597015 5.86207H23.8806C28.9965 10.137 27.5436 13.2058 23.8806 17.2414L17.3134 24.4828L32.2388 40H39.7015L24.4776 24.4828L25.0746 24.1379C34.8918 17.3512 36.6615 5.05042 25.0746 0H5.07463Z" fill="#6C63FF"/>
<path d="M16.1194 11.0345L3.28358 24.4828L18.209 40H24.4776L9.85075 24.4828L21.791 11.0345H16.1194Z" fill="#6C63FF"/>
<path d="M5.07463 0L0.597015 5.86207H23.8806C28.9965 10.137 27.5436 13.2058 23.8806 17.2414L17.3134 24.4828L32.2388 40H39.7015L24.4776 24.4828L25.0746 24.1379C34.8918 17.3512 36.6615 5.05042 25.0746 0H5.07463Z" stroke="#6C63FF"/>
<path d="M16.1194 11.0345L3.28358 24.4828L18.209 40H24.4776L9.85075 24.4828L21.791 11.0345H16.1194Z" stroke="#6C63FF"/>
</g>
<defs>
<clipPath id="clip0">
<rect width="40" height="40" fill="white"/>
</clipPath>
</defs>
</svg>
